<?xml version="1.0" standalone="no"?>
<!DOCTYPE svg PUBLIC "-//W3C//DTD SVG 20010904//EN"
 "http://www.w3.org/TR/2001/REC-SVG-20010904/DTD/svg10.dtd">
<svg version="1.0" xmlns="http://www.w3.org/2000/svg"
 width="800.000000pt" height="600.000000pt" viewBox="0 0 800.000000 600.000000"
 preserveAspectRatio="xMidYMid meet">

<g transform="translate(0.000000,600.000000) scale(0.100000,-0.100000)"
fill="#000000" stroke="none">
<path d="M3170 4147 c-158 -54 -284 -187 -324 -342 -14 -51 -16 -164 -16 -811
0 -722 1 -754 20 -816 51 -167 205 -307 369 -338 33 -6 341 -10 790 -10 803 0
796 0 905 58 67 35 167 135 199 197 59 117 57 91 57 916 0 724 -1 760 -20 820
-48 157 -172 281 -328 329 -62 19 -94 20 -826 20 l-761 -1 -65 -22z m790
-1016 c0 -154 4 -151 -172 -151 l-128 0 0 -85 0 -85 149 0 c83 0 152 -3 154
-7 3 -5 1 -18 -4 -30 -8 -23 -11 -23 -187 -23 -125 0 -182 4 -190 12 -8 8 -12
55 -12 145 l0 133 150 0 150 0 0 75 0 74 -152 3 -153 3 -3 28 -3 27 200 0 201
0 0 -119z m-474 -96 c22 -33 17 -261 -6 -275 -23 -15 -333 -13 -348 2 -8 8
-12 55 -12 145 0 115 2 133 18 142 9 6 86 11 174 11 156 0 158 0 174 -25z
m918 3 c19 -26 23 -236 6 -269 -10 -18 -23 -19 -178 -19 -117 0 -172 4 -180
12 -8 8 -12 55 -12 145 0 115 2 133 18 142 9 6 86 11 174 11 151 0 157 -1 172
-22z m234 -25 l40 -47 43 47 c44 48 44 48 101 45 l58 -3 -70 -77 -70 -76 71
-76 71 -76 -58 0 c-55 0 -61 2 -101 42 l-43 42 -43 -42 c-40 -40 -46 -42 -101
-42 l-58 0 71 77 71 78 -53 55 c-29 30 -61 65 -71 78 l-19 22 60 0 c60 0 61
-1 101 -47z"/>
<path d="M3210 2905 l0 -95 95 0 95 0 0 95 0 95 -95 0 -95 0 0 -95z"/>
<path d="M4130 2905 l0 -95 95 0 95 0 0 95 0 95 -95 0 -95 0 0 -95z"/>
</g>
</svg>
